<?xml version="1.0" encoding="UTF-8"?>
<!DOCTYPE svg PUBLIC "-//W3C//DTD SVG 1.1//EN" "http://www.w3.org/Graphics/SVG/1.1/DTD/svg11.dtd">
<svg xmlns="http://www.w3.org/2000/svg" version="1.1" width="500px" height="500px" style="shape-rendering:geometricPrecision; text-rendering:geometricPrecision; image-rendering:optimizeQuality; fill-rule:evenodd; clip-rule:evenodd" xmlns:xlink="http://www.w3.org/1999/xlink">
<g><path style="opacity:1" fill="#962828" d="M 237.5,94.5 C 235.449,92.9624 233.782,93.2957 232.5,95.5C 234.045,96.4519 235.712,96.7852 237.5,96.5C 235.698,97.4582 233.698,98.1249 231.5,98.5C 231.5,98.1667 231.5,97.8333 231.5,97.5C 229.712,94.2105 230.712,92.5438 234.5,92.5C 236.03,92.6399 237.03,93.3065 237.5,94.5 Z"/></g>
<g><path style="opacity:1" fill="#e63c3e" d="M 237.5,94.5 C 237.5,95.1667 237.5,95.8333 237.5,96.5C 235.712,96.7852 234.045,96.4519 232.5,95.5C 233.782,93.2957 235.449,92.9624 237.5,94.5 Z"/></g>
<g><path style="opacity:0.063" fill="#1f100f" d="M 214.5,96.5 C 213.833,95.1667 213.833,95.1667 214.5,96.5 Z"/></g>
<g><path style="opacity:0.078" fill="#591818" d="M 271.5,95.5 C 268.574,96.4608 265.574,97.1274 262.5,97.5C 265.155,94.7705 268.155,94.1038 271.5,95.5 Z"/></g>
<g><path style="opacity:0.439" fill="#2e0f0d" d="M 247.5,97.5 C 246.2,98.1079 244.867,98.7745 243.5,99.5C 242.287,99.2528 241.62,98.5862 241.5,97.5C 241.369,96.6236 241.702,95.9569 242.5,95.5C 244.336,96.0276 246.003,96.6942 247.5,97.5 Z"/></g>
<g><path style="opacity:0.065" fill="#130000" d="M 221.5,97.5 C 222.156,98.2778 222.989,98.9444 224,99.5C 226.319,98.1287 228.819,97.4621 231.5,97.5C 231.5,97.8333 231.5,98.1667 231.5,98.5C 229.447,98.4021 227.78,99.0687 226.5,100.5C 226.167,100.5 225.833,100.5 225.5,100.5C 224.167,100.5 222.833,100.5 221.5,100.5C 221.5,99.5 221.5,98.5 221.5,97.5 Z"/></g>
<g><path style="opacity:0.118" fill="#3f0f12" d="M 260.5,97.5 C 260.389,98.1174 260.056,98.6174 259.5,99C 256.115,100.199 252.782,100.366 249.5,99.5C 249.5,98.8333 249.5,98.1667 249.5,97.5C 253.046,97.0846 256.713,97.0846 260.5,97.5 Z"/></g>
<g><path style="opacity:0.808" fill="#ba3b3c" d="M 277.5,96.5 C 279.565,96.5172 281.565,96.8505 283.5,97.5C 285.969,98.3171 288.635,98.8171 291.5,99C 292.381,99.7083 293.047,100.542 293.5,101.5C 289.752,99.9082 285.752,99.0749 281.5,99C 279.68,98.7996 278.347,97.9663 277.5,96.5 Z"/></g>
<g><path style="opacity:0.247" fill="#2c0600" d="M 283.5,97.5 C 286.518,97.3354 289.518,97.502 292.5,98C 294.017,99.6851 295.684,101.185 297.5,102.5C 300.376,100.041 303.376,99.8739 306.5,102C 309.557,104.723 312.89,107.056 316.5,109C 317.883,110.271 318.883,111.771 319.5,113.5C 318.833,113.5 318.167,113.5 317.5,113.5C 313.03,107.161 307.03,103.661 299.5,103C 298.667,103.833 297.833,104.667 297,105.5C 296.051,103.907 294.885,102.574 293.5,101.5C 293.047,100.542 292.381,99.7083 291.5,99C 288.635,98.8171 285.969,98.3171 283.5,97.5 Z"/></g>
<g><path style="opacity:0.333" fill="#380806" d="M 237.5,94.5 C 238.404,95.209 238.737,96.209 238.5,97.5C 238.443,98.609 238.11,99.609 237.5,100.5C 233.833,100.5 230.167,100.5 226.5,100.5C 227.78,99.0687 229.447,98.4021 231.5,98.5C 233.698,98.1249 235.698,97.4582 237.5,96.5C 237.5,95.8333 237.5,95.1667 237.5,94.5 Z"/></g>
<g><path style="opacity:0.369" fill="#4f060b" d="M 220.5,97.5 C 220.833,97.5 221.167,97.5 221.5,97.5C 221.5,98.5 221.5,99.5 221.5,100.5C 222.833,100.5 224.167,100.5 225.5,100.5C 223.712,101.622 221.712,101.789 219.5,101C 220.337,99.9887 220.67,98.8221 220.5,97.5 Z"/></g>
<g><path style="opacity:0.8" fill="#c83435" d="M 271.5,95.5 C 273.735,95.2053 275.735,95.5386 277.5,96.5C 269.306,97.6514 261.139,99.318 253,101.5C 251.319,101.392 250.152,100.725 249.5,99.5C 252.782,100.366 256.115,100.199 259.5,99C 260.056,98.6174 260.389,98.1174 260.5,97.5C 261.167,97.5 261.833,97.5 262.5,97.5C 265.574,97.1274 268.574,96.4608 271.5,95.5 Z"/></g>
<g><path style="opacity:0.043" fill="#250502" d="M 214.5,97.5 C 213.339,100.074 211.672,102.24 209.5,104C 210.359,106.053 211.692,107.72 213.5,109C 209.639,111.364 206.972,111.03 205.5,108C 202.792,107.764 200.292,106.931 198,105.5C 190.816,107.161 183.982,109.494 177.5,112.5C 170.719,113.56 164.719,116.227 159.5,120.5C 156.775,121.713 154.441,123.546 152.5,126C 153.244,127.039 154.244,127.539 155.5,127.5C 156.63,129.315 157.296,131.315 157.5,133.5C 157.167,133.5 156.833,133.5 156.5,133.5C 154.738,133.357 153.071,133.691 151.5,134.5C 151.089,133.738 150.923,132.738 151,131.5C 149.333,132.733 147.833,134.067 146.5,135.5C 142.268,137.4 138.601,140.067 135.5,143.5C 132.054,144.612 130.054,146.945 129.5,150.5C 130.675,150.281 131.675,150.614 132.5,151.5C 131.476,152.852 130.476,154.185 129.5,155.5C 128.527,157.139 127.194,158.473 125.5,159.5C 126.526,156.628 128.192,154.128 130.5,152C 129.552,151.517 128.552,151.351 127.5,151.5C 127.738,147.862 129.404,145.029 132.5,143C 139.319,137.513 146.652,132.846 154.5,129C 151.968,128.388 151.135,126.888 152,124.5C 156.892,119.3 162.725,115.466 169.5,113C 178.046,109.929 186.712,107.262 195.5,105C 200.927,103.976 205.427,105.476 209,109.5C 209.5,109.333 210,109.167 210.5,109C 208.718,106.757 208.218,104.257 209,101.5C 210.992,100.335 212.825,99.002 214.5,97.5 Z"/></g>
<g><path style="opacity:0.99" fill="#c93533" d="M 214.5,96.5 C 216.621,96.3253 218.621,96.6586 220.5,97.5C 220.67,98.8221 220.337,99.9887 219.5,101C 221.712,101.789 223.712,101.622 225.5,100.5C 225.833,100.5 226.167,100.5 226.5,100.5C 230.167,100.5 233.833,100.5 237.5,100.5C 231.374,101.903 225.041,103.236 218.5,104.5C 216.591,103.652 214.591,103.318 212.5,103.5C 212.424,105.923 213.424,107.756 215.5,109C 215.355,109.772 215.022,110.439 214.5,111C 211.558,112.124 208.558,112.458 205.5,112C 204.575,110.866 203.575,109.699 202.5,108.5C 200.577,109.092 198.911,110.092 197.5,111.5C 197.5,110.5 197.5,109.5 197.5,108.5C 190.91,109.823 184.243,111.156 177.5,112.5C 183.982,109.494 190.816,107.161 198,105.5C 200.292,106.931 202.792,107.764 205.5,108C 206.972,111.03 209.639,111.364 213.5,109C 211.692,107.72 210.359,106.053 209.5,104C 211.672,102.24 213.339,100.074 214.5,97.5C 214.5,97.1667 214.5,96.8333 214.5,96.5 Z"/></g>
<g><path style="opacity:1" fill="#f23434" d="M 197.5,111.5 C 197.5,112.167 197.5,112.833 197.5,113.5C 193.873,114.28 190.54,115.78 187.5,118C 186.663,119.011 186.33,120.178 186.5,121.5C 184.833,121.5 183.167,121.5 181.5,121.5C 181.5,120.833 181.5,120.167 181.5,119.5C 181.209,118.351 180.376,117.684 179,117.5C 178.167,117.667 177.333,117.833 176.5,118C 175.88,120.473 175.214,122.973 174.5,125.5C 172.599,127.006 170.932,128.673 169.5,130.5C 167.952,130.179 167.285,129.179 167.5,127.5C 167.5,127.167 167.5,126.833 167.5,126.5C 168.478,126.189 169.145,125.522 169.5,124.5C 167.701,123.212 166.035,123.212 164.5,124.5C 163.29,124.932 162.29,125.599 161.5,126.5C 159.956,126.703 158.622,127.37 157.5,128.5C 156.817,128.137 156.15,127.804 155.5,127.5C 154.244,127.539 153.244,127.039 152.5,126C 154.441,123.546 156.775,121.713 159.5,120.5C 166.028,118.796 172.028,116.13 177.5,112.5C 184.243,111.156 190.91,109.823 197.5,108.5C 197.5,109.5 197.5,110.5 197.5,111.5 Z"/></g>
<g><path style="opacity:1" fill="#d53632" d="M 177.5,112.5 C 172.028,116.13 166.028,118.796 159.5,120.5C 164.719,116.227 170.719,113.56 177.5,112.5 Z"/></g>
<g><path style="opacity:0.247" fill="#631918" d="M 317.5,113.5 C 318.167,113.5 318.833,113.5 319.5,113.5C 319.167,114.167 318.833,114.833 318.5,115.5C 318.5,116.167 318.833,116.5 319.5,116.5C 320.341,117.009 320.841,116.343 321,114.5C 322.788,116.023 322.955,117.69 321.5,119.5C 317.166,119.203 315.833,117.203 317.5,113.5 Z"/></g>
<g><path style="opacity:0.592" fill="#b73b39" d="M 329.5,123.5 C 327.639,122.158 325.639,121.158 323.5,120.5C 329.067,121.316 331.901,118.983 332,113.5C 333.487,115.272 333.82,117.272 333,119.5C 331.624,120.705 330.458,122.038 329.5,123.5 Z"/></g>
<g><path style="opacity:0.137" fill="#260401" d="M 369.5,155.5 C 366.5,152.833 363.5,150.167 360.5,147.5C 351.832,137.334 341.498,129.334 329.5,123.5C 330.458,122.038 331.624,120.705 333,119.5C 333.82,117.272 333.487,115.272 332,113.5C 331.901,118.983 329.067,121.316 323.5,120.5C 322.833,120.167 322.167,119.833 321.5,119.5C 322.955,117.69 322.788,116.023 321,114.5C 320.841,116.343 320.341,117.009 319.5,116.5C 318.833,116.5 318.5,116.167 318.5,115.5C 318.833,114.833 319.167,114.167 319.5,113.5C 320.552,113.351 321.552,113.517 322.5,114C 323.282,120.143 325.782,120.977 330,116.5C 330.49,115.207 330.657,113.873 330.5,112.5C 333.734,112.237 335.068,113.737 334.5,117C 334.833,119.667 333.833,121.667 331.5,123C 346.808,130.813 359.475,141.646 369.5,155.5 Z"/></g>
<g><path style="opacity:0.059" fill="#280501" d="M 197.5,113.5 C 197.643,115.262 197.309,116.929 196.5,118.5C 193.262,120.275 190.262,122.275 187.5,124.5C 184.296,125.96 180.962,126.46 177.5,126C 179.041,124.629 180.375,123.129 181.5,121.5C 183.167,121.5 184.833,121.5 186.5,121.5C 186.33,120.178 186.663,119.011 187.5,118C 190.54,115.78 193.873,114.28 197.5,113.5 Z M 194.5,115.5 C 195.776,116.386 195.776,117.386 194.5,118.5C 192.5,119.5 190.5,120.5 188.5,121.5C 188.167,121.167 187.833,120.833 187.5,120.5C 190.077,119.057 192.41,117.39 194.5,115.5 Z M 181.5,124.5 C 182.238,122.24 183.238,122.073 184.5,124C 183.552,124.483 182.552,124.649 181.5,124.5 Z"/></g>
<g><path style="opacity:0.361" fill="#701315" d="M 164.5,124.5 C 166.035,123.212 167.701,123.212 169.5,124.5C 169.145,125.522 168.478,126.189 167.5,126.5C 167.179,124.952 166.179,124.285 164.5,124.5 Z"/></g>
<g><path style="opacity:0.084" fill="#290603" d="M 181.5,119.5 C 177.583,121.997 175.916,125.33 176.5,129.5C 177.881,131.274 177.548,132.774 175.5,134C 173.323,135.202 170.989,135.702 168.5,135.5C 166.574,137.293 164.241,138.293 161.5,138.5C 161.179,140.048 160.179,140.715 158.5,140.5C 158.5,139.5 158.5,138.5 158.5,137.5C 161.055,134.373 162.055,130.706 161.5,126.5C 162.29,125.599 163.29,124.932 164.5,124.5C 166.179,124.285 167.179,124.952 167.5,126.5C 167.5,126.833 167.5,127.167 167.5,127.5C 165.569,129.794 164.736,132.461 165,135.5C 166.707,133.963 168.207,132.296 169.5,130.5C 170.932,128.673 172.599,127.006 174.5,125.5C 175.214,122.973 175.88,120.473 176.5,118C 177.333,117.833 178.167,117.667 179,117.5C 180.376,117.684 181.209,118.351 181.5,119.5 Z M 165.5,126.5 C 164.586,130.744 163.253,134.744 161.5,138.5C 160.957,138.44 160.624,138.107 160.5,137.5C 162.022,134.36 162.855,131.027 163,127.5C 163.671,126.748 164.504,126.414 165.5,126.5 Z M 168.5,134.5 C 170.127,132.37 171.96,130.37 174,128.5C 176.21,130.985 175.71,132.818 172.5,134C 171.207,134.49 169.873,134.657 168.5,134.5 Z"/></g>
<g><path style="opacity:0.494" fill="#8d292a" d="M 181.5,119.5 C 181.5,120.167 181.5,120.833 181.5,121.5C 180.375,123.129 179.041,124.629 177.5,126C 180.962,126.46 184.296,125.96 187.5,124.5C 183.862,126.425 180.195,128.092 176.5,129.5C 175.916,125.33 177.583,121.997 181.5,119.5 Z"/></g>
<g><path style="opacity:0.867" fill="#a23133" d="M 167.5,127.5 C 167.285,129.179 167.952,130.179 169.5,130.5C 168.207,132.296 166.707,133.963 165,135.5C 164.736,132.461 165.569,129.794 167.5,127.5 Z"/></g>
<g><path style="opacity:0.878" fill="#bd3332" d="M 161.5,126.5 C 162.055,130.706 161.055,134.373 158.5,137.5C 158.768,135.901 158.434,134.568 157.5,133.5C 157.296,131.315 156.63,129.315 155.5,127.5C 156.15,127.804 156.817,128.137 157.5,128.5C 158.622,127.37 159.956,126.703 161.5,126.5 Z"/></g>
<g><path style="opacity:0.804" fill="#bb3637" d="M 156.5,133.5 C 153.493,135.175 150.16,135.841 146.5,135.5C 147.833,134.067 149.333,132.733 151,131.5C 150.923,132.738 151.089,133.738 151.5,134.5C 153.071,133.691 154.738,133.357 156.5,133.5 Z"/></g>
<g><path style="opacity:0.914" fill="#cf3737" d="M 146.5,135.5 C 147.514,139.093 146.514,142.093 143.5,144.5C 144.366,142.856 144.866,141.189 145,139.5C 142.575,142.053 140.408,144.72 138.5,147.5C 138.383,145.516 139.05,143.85 140.5,142.5C 140.167,142.167 139.833,141.833 139.5,141.5C 138.378,142.63 137.044,143.297 135.5,143.5C 138.601,140.067 142.268,137.4 146.5,135.5 Z"/></g>
<g><path style="opacity:0.137" fill="#4e0305" d="M 143.5,144.5 C 142.009,146.127 140.509,147.793 139,149.5C 137.282,148.969 137.115,148.302 138.5,147.5C 140.408,144.72 142.575,142.053 145,139.5C 144.866,141.189 144.366,142.856 143.5,144.5 Z"/></g>
<g><path style="opacity:0.914" fill="#c73738" d="M 360.5,147.5 C 363.5,150.167 366.5,152.833 369.5,155.5C 369.5,156.167 369.5,156.833 369.5,157.5C 365.766,154.769 362.766,151.436 360.5,147.5 Z"/></g>
<g><path style="opacity:0.635" fill="#b53330" d="M 135.5,143.5 C 134.19,145.148 132.857,146.814 131.5,148.5C 132.415,149.328 133.081,150.328 133.5,151.5C 132.481,153.511 131.481,155.511 130.5,157.5C 129.662,157.158 129.328,156.492 129.5,155.5C 130.476,154.185 131.476,152.852 132.5,151.5C 131.675,150.614 130.675,150.281 129.5,150.5C 130.054,146.945 132.054,144.612 135.5,143.5 Z"/></g>
<g><path style="opacity:0.106" fill="#230200" d="M 369.5,155.5 C 376.475,161.438 381.475,168.771 384.5,177.5C 382.167,174.167 379.833,170.833 377.5,167.5C 376.92,165.251 375.587,163.585 373.5,162.5C 372.92,160.251 371.587,158.585 369.5,157.5C 369.5,156.833 369.5,156.167 369.5,155.5 Z"/></g>
<g><path style="opacity:0.224" fill="#4f1215" d="M 129.5,155.5 C 129.328,156.492 129.662,157.158 130.5,157.5C 130.938,157.435 131.272,157.601 131.5,158C 129.536,159.451 128.203,161.284 127.5,163.5C 127.167,163.5 126.833,163.5 126.5,163.5C 126.672,162.508 126.338,161.842 125.5,161.5C 125.5,160.833 125.5,160.167 125.5,159.5C 127.194,158.473 128.527,157.139 129.5,155.5 Z"/></g>
<g><path style="opacity:0.698" fill="#aa3032" d="M 369.5,157.5 C 371.587,158.585 372.92,160.251 373.5,162.5C 371.413,161.415 370.08,159.749 369.5,157.5 Z"/></g>
<g><path style="opacity:1" fill="#fe3131" d="M 277.5,96.5 C 278.347,97.9663 279.68,98.7996 281.5,99C 285.752,99.0749 289.752,99.9082 293.5,101.5C 294.885,102.574 296.051,103.907 297,105.5C 297.833,104.667 298.667,103.833 299.5,103C 307.03,103.661 313.03,107.161 317.5,113.5C 315.833,117.203 317.166,119.203 321.5,119.5C 322.167,119.833 322.833,120.167 323.5,120.5C 325.639,121.158 327.639,122.158 329.5,123.5C 341.498,129.334 351.832,137.334 360.5,147.5C 362.766,151.436 365.766,154.769 369.5,157.5C 370.08,159.749 371.413,161.415 373.5,162.5C 375.587,163.585 376.92,165.251 377.5,167.5C 379.079,174.79 382.413,181.123 387.5,186.5C 390.317,192.768 392.984,199.101 395.5,205.5C 395.328,206.492 395.662,207.158 396.5,207.5C 395.503,210.328 395.503,212.995 396.5,215.5C 396.313,221.212 396.646,226.879 397.5,232.5C 398.5,232.5 399.5,232.5 400.5,232.5C 400.433,234.401 400.767,236.234 401.5,238C 400.944,239.011 400.278,239.844 399.5,240.5C 398.842,241.793 398.508,243.293 398.5,245C 399.018,248.533 399.684,252.033 400.5,255.5C 398.732,260.007 397.732,264.674 397.5,269.5C 396.5,269.5 395.5,269.5 394.5,269.5C 394.194,272.385 394.527,275.052 395.5,277.5C 395.5,279.167 395.5,280.833 395.5,282.5C 395.762,283.978 395.429,285.311 394.5,286.5C 393.313,285.347 392.313,285.347 391.5,286.5C 389.996,289.316 388.662,292.316 387.5,295.5C 385.903,296.09 384.569,297.09 383.5,298.5C 383.275,302.631 381.608,305.965 378.5,308.5C 377.859,304.629 376.359,303.962 374,306.5C 373.55,308.519 372.717,310.352 371.5,312C 374.2,312.949 375.033,314.783 374,317.5C 372.89,319.037 371.39,319.703 369.5,319.5C 369.5,321.167 369.5,322.833 369.5,324.5C 363.137,332.191 356.803,339.858 350.5,347.5C 349.178,347.33 348.011,347.663 347,348.5C 345.274,353.146 343.107,357.48 340.5,361.5C 339.209,361.263 338.209,361.596 337.5,362.5C 337.158,363.338 336.492,363.672 335.5,363.5C 334.596,364.209 334.263,365.209 334.5,366.5C 338.437,366.793 342.27,366.46 346,365.5C 345.513,367.044 345.013,368.71 344.5,370.5C 343.5,370.5 342.5,370.5 341.5,370.5C 341.5,371.833 341.5,373.167 341.5,374.5C 338.094,376.445 334.428,377.945 330.5,379C 329.62,380.356 329.286,381.856 329.5,383.5C 329.5,384.167 329.167,384.5 328.5,384.5C 325.167,384.5 321.833,384.5 318.5,384.5C 318.5,386.167 318.5,387.833 318.5,389.5C 317.662,389.842 317.328,390.508 317.5,391.5C 314.548,391.388 311.548,391.721 308.5,392.5C 305.5,393.167 302.5,393.833 299.5,394.5C 298.167,394.5 297.5,393.833 297.5,392.5C 297.5,391.5 297.5,390.5 297.5,389.5C 295.62,389.229 294.287,389.896 293.5,391.5C 291.517,391.157 290.183,391.824 289.5,393.5C 288.833,393.5 288.167,393.5 287.5,393.5C 286.167,394.167 284.833,394.833 283.5,395.5C 280.14,395.616 276.807,395.949 273.5,396.5C 257.004,398.309 240.337,398.976 223.5,398.5C 223.5,399.833 223.5,401.167 223.5,402.5C 220.813,402.664 218.146,402.497 215.5,402C 212.439,399.965 209.105,398.799 205.5,398.5C 202.515,397.674 199.849,396.341 197.5,394.5C 196.194,393.533 195.527,392.199 195.5,390.5C 193.784,390.371 192.117,390.038 190.5,389.5C 190.631,388.761 190.464,388.094 190,387.5C 185.652,386.887 184.819,385.054 187.5,382C 186.584,381.626 185.75,381.126 185,380.5C 184.692,381.308 184.192,381.975 183.5,382.5C 182.5,381.167 181.5,381.167 180.5,382.5C 177.263,377.413 172.596,374.747 166.5,374.5C 165.833,374.5 165.167,374.5 164.5,374.5C 162.5,372.167 160.5,369.833 158.5,367.5C 156.1,364.097 153.1,361.43 149.5,359.5C 148.833,359.5 148.167,359.5 147.5,359.5C 146.199,358.118 145.366,356.452 145,354.5C 142.809,353.167 140.976,351.5 139.5,349.5C 137.471,347.142 135.471,344.808 133.5,342.5C 133.753,338.585 133.087,334.919 131.5,331.5C 130.5,331.5 129.5,331.5 128.5,331.5C 127.766,330.292 127.433,328.959 127.5,327.5C 126.5,327.5 125.5,327.5 124.5,327.5C 124.737,326.209 124.404,325.209 123.5,324.5C 120.894,323.257 120.894,321.924 123.5,320.5C 123.137,319.817 122.804,319.15 122.5,318.5C 122.5,317.5 122.5,316.5 122.5,315.5C 120.446,315.635 118.779,314.968 117.5,313.5C 117.267,308.106 116.601,302.773 115.5,297.5C 115.628,295.345 115.128,293.345 114,291.5C 113.601,291.728 113.435,292.062 113.5,292.5C 112.5,292.5 111.5,292.5 110.5,292.5C 109.478,280.914 106.812,269.747 102.5,259C 102.528,257.93 102.861,257.097 103.5,256.5C 105.308,255.082 105.975,253.082 105.5,250.5C 106.451,249.081 106.784,247.415 106.5,245.5C 107.657,242.974 107.657,240.307 106.5,237.5C 106.5,236.167 106.5,234.833 106.5,233.5C 107.5,233.5 108.5,233.5 109.5,233.5C 109.215,235.288 109.548,236.955 110.5,238.5C 111.107,238.376 111.44,238.043 111.5,237.5C 113.715,236.076 114.715,233.909 114.5,231C 114.954,227.707 113.62,225.874 110.5,225.5C 111.368,217.521 112.035,209.521 112.5,201.5C 112.5,200.167 112.5,198.833 112.5,197.5C 115.747,197.415 118.581,198.415 121,200.5C 121.333,200.167 121.667,199.833 122,199.5C 121.917,203.311 122.75,206.645 124.5,209.5C 125.737,208.035 126.737,206.368 127.5,204.5C 130.102,198.947 133.436,193.947 137.5,189.5C 139.486,186.158 141.819,182.992 144.5,180C 143.167,179.333 141.833,179.333 140.5,180C 139.922,181.417 138.922,182.25 137.5,182.5C 136.779,180.618 135.779,180.285 134.5,181.5C 132.946,182.914 131.612,184.581 130.5,186.5C 128.826,188.513 126.826,190.18 124.5,191.5C 122.964,193.025 121.964,195.025 121.5,197.5C 120.52,194.914 120.187,192.247 120.5,189.5C 122.219,180.71 124.553,172.043 127.5,163.5C 128.203,161.284 129.536,159.451 131.5,158C 131.272,157.601 130.938,157.435 130.5,157.5C 131.481,155.511 132.481,153.511 133.5,151.5C 133.081,150.328 132.415,149.328 131.5,148.5C 132.857,146.814 134.19,145.148 135.5,143.5C 137.044,143.297 138.378,142.63 139.5,141.5C 139.833,141.833 140.167,142.167 140.5,142.5C 139.05,143.85 138.383,145.516 138.5,147.5C 137.115,148.302 137.282,148.969 139,149.5C 140.509,147.793 142.009,146.127 143.5,144.5C 146.514,142.093 147.514,139.093 146.5,135.5C 150.16,135.841 153.493,135.175 156.5,133.5C 156.833,133.5 157.167,133.5 157.5,133.5C 158.434,134.568 158.768,135.901 158.5,137.5C 158.5,138.5 158.5,139.5 158.5,140.5C 160.179,140.715 161.179,140.048 161.5,138.5C 164.241,138.293 166.574,137.293 168.5,135.5C 170.989,135.702 173.323,135.202 175.5,134C 177.548,132.774 177.881,131.274 176.5,129.5C 180.195,128.092 183.862,126.425 187.5,124.5C 190.262,122.275 193.262,120.275 196.5,118.5C 197.309,116.929 197.643,115.262 197.5,113.5C 197.5,112.833 197.5,112.167 197.5,111.5C 198.911,110.092 200.577,109.092 202.5,108.5C 203.575,109.699 204.575,110.866 205.5,112C 208.558,112.458 211.558,112.124 214.5,111C 215.022,110.439 215.355,109.772 215.5,109C 213.424,107.756 212.424,105.923 212.5,103.5C 214.591,103.318 216.591,103.652 218.5,104.5C 225.041,103.236 231.374,101.903 237.5,100.5C 238.11,99.609 238.443,98.609 238.5,97.5C 239.5,97.5 240.5,97.5 241.5,97.5C 241.62,98.5862 242.287,99.2528 243.5,99.5C 244.867,98.7745 246.2,98.1079 247.5,97.5C 248.167,97.5 248.833,97.5 249.5,97.5C 249.5,98.1667 249.5,98.8333 249.5,99.5C 250.152,100.725 251.319,101.392 253,101.5C 261.139,99.318 269.306,97.6514 277.5,96.5 Z M 130.5,189.5 C 131.209,190.404 132.209,190.737 133.5,190.5C 131.167,195.167 128.833,199.833 126.5,204.5C 125.355,200.689 125.188,196.689 126,192.5C 127.271,191.117 128.771,190.117 130.5,189.5 Z"/></g>
<g><path style="opacity:1" fill="#fefbfb" d="M 353.5,163.5 C 347.52,174.791 341.52,186.124 335.5,197.5C 329.998,205.832 324.998,214.499 320.5,223.5C 315.251,230.996 310.251,238.663 305.5,246.5C 304.156,244.965 302.489,243.632 300.5,242.5C 289.342,242.389 278.008,242.555 266.5,243C 265.437,244.188 264.103,244.688 262.5,244.5C 263.275,242.388 263.275,240.388 262.5,238.5C 266.98,229.723 271.646,221.056 276.5,212.5C 278.083,210.337 279.416,208.004 280.5,205.5C 281.043,205.44 281.376,205.107 281.5,204.5C 267.85,203.501 254.183,203.167 240.5,203.5C 240.5,190.5 240.5,177.5 240.5,164.5C 277.996,163.502 315.663,163.168 353.5,163.5 Z"/></g>
<g><path style="opacity:1" fill="#040000" d="M 208.5,164.5 C 209.689,167.708 211.355,170.708 213.5,173.5C 213.5,174.167 213.5,174.833 213.5,175.5C 215.876,181.095 218.542,186.428 221.5,191.5C 222.743,197.319 225.076,202.652 228.5,207.5C 229.463,210.744 230.796,213.744 232.5,216.5C 237.147,228.152 242.147,239.485 247.5,250.5C 248.732,254.247 250.232,257.914 252,261.5C 252.561,262.022 253.228,262.355 254,262.5C 265.077,260.695 276.243,260.029 287.5,260.5C 290.659,262.004 293.993,263.337 297.5,264.5C 293.956,270.921 290.956,277.587 288.5,284.5C 284.85,292.422 281.184,300.422 277.5,308.5C 272.322,318.864 267.655,329.531 263.5,340.5C 262.094,340.973 261.427,341.973 261.5,343.5C 258.681,349.807 255.848,356.141 253,362.5C 251.407,358.976 249.573,355.642 247.5,352.5C 247.5,352.167 247.5,351.833 247.5,351.5C 245.211,345.619 242.544,339.953 239.5,334.5C 239.5,334.167 239.5,333.833 239.5,333.5C 237.736,328.978 235.736,324.645 233.5,320.5C 232.257,315.75 230.257,311.416 227.5,307.5C 227.5,307.167 227.5,306.833 227.5,306.5C 226.403,303.314 225.07,300.314 223.5,297.5C 221.07,291.643 218.403,285.977 215.5,280.5C 215.5,280.167 215.5,279.833 215.5,279.5C 213.388,273.789 210.721,268.456 207.5,263.5C 207.585,260.351 206.585,257.684 204.5,255.5C 202.564,250.256 200.231,245.256 197.5,240.5C 197.5,240.167 197.5,239.833 197.5,239.5C 194.66,231.829 191.327,224.496 187.5,217.5C 185.25,210.386 182.25,203.719 178.5,197.5C 177.231,193.592 175.565,189.925 173.5,186.5C 171.344,180.196 168.678,174.196 165.5,168.5C 165.5,167.833 165.5,167.167 165.5,166.5C 179.461,164.517 193.794,163.85 208.5,164.5 Z"/></g>
<g><path style="opacity:1" fill="#e33e3e" d="M 353.5,163.5 C 315.663,163.168 277.996,163.502 240.5,164.5C 239.505,177.323 239.171,190.323 239.5,203.5C 238.17,190.098 238.17,176.598 239.5,163C 277.669,162.169 315.669,162.336 353.5,163.5 Z"/></g>
<g><path style="opacity:1" fill="#db3c3d" d="M 213.5,173.5 C 211.355,170.708 209.689,167.708 208.5,164.5C 194.01,163.504 179.343,163.171 164.5,163.5C 164.263,164.791 164.596,165.791 165.5,166.5C 165.5,167.167 165.5,167.833 165.5,168.5C 163.72,167.01 163.054,165.01 163.5,162.5C 178.837,162.333 194.17,162.5 209.5,163C 211.066,166.403 212.399,169.903 213.5,173.5 Z"/></g>
<g><path style="opacity:1" fill="#6c1515" d="M 208.5,164.5 C 193.794,163.85 179.461,164.517 165.5,166.5C 164.596,165.791 164.263,164.791 164.5,163.5C 179.343,163.171 194.01,163.504 208.5,164.5 Z"/></g>
<g><path style="opacity:0.906" fill="#c23636" d="M 126.5,163.5 C 126.833,163.5 127.167,163.5 127.5,163.5C 124.553,172.043 122.219,180.71 120.5,189.5C 120.167,189.5 119.833,189.5 119.5,189.5C 120.455,183.274 121.789,177.108 123.5,171C 123.167,170.167 122.833,169.333 122.5,168.5C 121.05,169.85 120.383,171.516 120.5,173.5C 119.839,174.718 119.172,176.051 118.5,177.5C 117.233,174.761 117.399,172.094 119,169.5C 121.663,167.666 124.163,165.666 126.5,163.5 Z"/></g>
<g><path style="opacity:1" fill="#c33333" d="M 213.5,175.5 C 214.5,175.5 215.5,175.5 216.5,175.5C 218,180.907 219.667,186.24 221.5,191.5C 218.542,186.428 215.876,181.095 213.5,175.5 Z"/></g>
<g><path style="opacity:1" fill="#ca3434" d="M 377.5,167.5 C 379.833,170.833 382.167,174.167 384.5,177.5C 384.66,179.153 385.326,180.486 386.5,181.5C 386.629,183.216 386.962,184.883 387.5,186.5C 382.413,181.123 379.079,174.79 377.5,167.5 Z"/></g>
<g><path style="opacity:1" fill="#dd3434" d="M 165.5,168.5 C 168.678,174.196 171.344,180.196 173.5,186.5C 172.035,185.594 171.035,184.261 170.5,182.5C 169.675,181.614 168.675,181.281 167.5,181.5C 167.101,184.988 166.434,185.154 165.5,182C 165.933,180.072 166.6,178.239 167.5,176.5C 166.238,173.978 165.571,171.311 165.5,168.5 Z"/></g>
<g><path style="opacity:0.116" fill="#1f0000" d="M 384.5,177.5 C 386.104,178.287 386.771,179.62 386.5,181.5C 385.326,180.486 384.66,179.153 384.5,177.5 Z"/></g>
<g><path style="opacity:0.173" fill="#4d0101" d="M 137.5,182.5 C 133.939,188.097 132.939,187.763 134.5,181.5C 135.779,180.285 136.779,180.618 137.5,182.5 Z"/></g>
<g><path style="opacity:0.804" fill="#be3434" d="M 137.5,189.5 C 140.382,182.597 139.716,182.097 135.5,188C 134.207,188.49 132.873,188.657 131.5,188.5C 131.672,187.508 131.338,186.842 130.5,186.5C 131.612,184.581 132.946,182.914 134.5,181.5C 132.939,187.763 133.939,188.097 137.5,182.5C 138.922,182.25 139.922,181.417 140.5,180C 141.833,179.333 143.167,179.333 144.5,180C 141.819,182.992 139.486,186.158 137.5,189.5 Z"/></g>
<g><path style="opacity:0.071" fill="#230301" d="M 386.5,181.5 C 391.058,188.833 394.058,196.833 395.5,205.5C 392.984,199.101 390.317,192.768 387.5,186.5C 386.962,184.883 386.629,183.216 386.5,181.5 Z"/></g>
<g><path style="opacity:0.286" fill="#220402" d="M 125.5,161.5 C 126.338,161.842 126.672,162.508 126.5,163.5C 124.163,165.666 121.663,167.666 119,169.5C 117.399,172.094 117.233,174.761 118.5,177.5C 119.172,176.051 119.839,174.718 120.5,173.5C 120.383,171.516 121.05,169.85 122.5,168.5C 122.833,169.333 123.167,170.167 123.5,171C 121.789,177.108 120.455,183.274 119.5,189.5C 118.691,191.292 118.191,193.292 118,195.5C 117.292,194.619 116.458,193.953 115.5,193.5C 115.483,191.972 114.816,191.472 113.5,192C 112.335,193.992 111.002,195.825 109.5,197.5C 107.158,199.317 105.991,201.65 106,204.5C 107.176,202.804 108.343,201.138 109.5,199.5C 110.5,199.833 111.167,200.5 111.5,201.5C 110.758,208.21 109.758,214.876 108.5,221.5C 108.167,221.5 107.833,221.5 107.5,221.5C 108.82,215.224 109.32,208.891 109,202.5C 105.577,207.786 104.244,207.119 105,200.5C 107.692,197.308 110.192,193.975 112.5,190.5C 114.782,189.1 116.282,189.766 117,192.5C 117.9,188.166 118.734,183.832 119.5,179.5C 118.5,179.5 117.5,179.5 116.5,179.5C 116.737,180.791 116.404,181.791 115.5,182.5C 115.052,184.465 114.052,184.798 112.5,183.5C 109.152,178.844 110.152,175.844 115.5,174.5C 115.608,172.217 116.441,170.217 118,168.5C 120.998,166.667 123.498,164.334 125.5,161.5 Z"/></g>
<g><path style="opacity:0.42" fill="#672728" d="M 115.5,182.5 C 114.883,182.611 114.383,182.944 114,183.5C 110.582,180.489 110.749,177.823 114.5,175.5C 114.251,177.63 114.585,179.963 115.5,182.5 Z"/></g>
<g><path style="opacity:0.188" fill="#280906" d="M 102.5,181.5 C 104.124,181.36 105.29,182.027 106,183.5C 106.667,185.833 106.667,188.167 106,190.5C 105.25,191.126 104.416,191.626 103.5,192C 105.978,193.938 106.145,196.105 104,198.5C 101.205,200.293 98.7047,202.46 96.5,205C 97.9733,205.71 98.6399,206.876 98.5,208.5C 96.8561,208.714 95.3561,208.38 94,207.5C 94.2572,203.586 94.0905,199.586 93.5,195.5C 94.8221,195.33 95.9887,195.663 97,196.5C 98.1411,194.391 99.6411,192.558 101.5,191C 100.919,190.107 100.585,189.107 100.5,188C 101.033,185.774 101.7,183.607 102.5,181.5 Z"/></g>
<g><path style="opacity:0.741" fill="#ae494d" d="M 103.5,183.5 C 104.797,185.693 104.797,188.027 103.5,190.5C 102.286,188.141 102.286,185.808 103.5,183.5 Z"/></g>
<g><path style="opacity:0.671" fill="#a1292a" d="M 119.5,189.5 C 119.664,192.187 119.497,194.854 119,197.5C 116.929,196.897 115.762,195.564 115.5,193.5C 116.458,193.953 117.292,194.619 118,195.5C 118.191,193.292 118.691,191.292 119.5,189.5 Z"/></g>
<g><path style="opacity:0.133" fill="#250400" d="M 137.5,189.5 C 133.436,193.947 130.102,198.947 127.5,204.5C 127.167,204.5 126.833,204.5 126.5,204.5C 128.833,199.833 131.167,195.167 133.5,190.5C 132.209,190.737 131.209,190.404 130.5,189.5C 130.5,188.833 130.833,188.5 131.5,188.5C 132.873,188.657 134.207,188.49 135.5,188C 139.716,182.097 140.382,182.597 137.5,189.5 Z"/></g>
<g><path style="opacity:0.994" fill="#e43937" d="M 119.5,189.5 C 119.833,189.5 120.167,189.5 120.5,189.5C 120.187,192.247 120.52,194.914 121.5,197.5C 121.964,195.025 122.964,193.025 124.5,191.5C 124.5,197.5 124.5,203.5 124.5,209.5C 122.75,206.645 121.917,203.311 122,199.5C 121.667,199.833 121.333,200.167 121,200.5C 118.581,198.415 115.747,197.415 112.5,197.5C 112.5,198.833 112.5,200.167 112.5,201.5C 112.167,201.5 111.833,201.5 111.5,201.5C 111.167,200.5 110.5,199.833 109.5,199.5C 109.5,198.833 109.5,198.167 109.5,197.5C 111.002,195.825 112.335,193.992 113.5,192C 114.816,191.472 115.483,191.972 115.5,193.5C 115.762,195.564 116.929,196.897 119,197.5C 119.497,194.854 119.664,192.187 119.5,189.5 Z"/></g>
<g><path style="opacity:0.698" fill="#bf3c3f" d="M 100.5,193.5 C 101.5,193.5 102.5,193.5 103.5,193.5C 103.657,194.873 103.49,196.207 103,197.5C 100.372,199.126 98.039,201.126 96,203.5C 95.1635,201.179 94.8301,198.845 95,196.5C 98.3059,199.098 100.139,198.098 100.5,193.5 Z"/></g>
<g><path style="opacity:1" fill="#c73337" d="M 221.5,191.5 C 223.53,194.009 225.197,196.842 226.5,200C 227.871,202.319 228.538,204.819 228.5,207.5C 225.076,202.652 222.743,197.319 221.5,191.5 Z"/></g>
<g><path style="opacity:0.265" fill="#390301" d="M 130.5,186.5 C 131.338,186.842 131.672,187.508 131.5,188.5C 130.833,188.5 130.5,188.833 130.5,189.5C 128.771,190.117 127.271,191.117 126,192.5C 125.188,196.689 125.355,200.689 126.5,204.5C 126.833,204.5 127.167,204.5 127.5,204.5C 126.737,206.368 125.737,208.035 124.5,209.5C 124.5,203.5 124.5,197.5 124.5,191.5C 126.826,190.18 128.826,188.513 130.5,186.5 Z"/></g>
<g><path style="opacity:0.498" fill="#86332f" d="M 109.5,197.5 C 109.5,198.167 109.5,198.833 109.5,199.5C 108.343,201.138 107.176,202.804 106,204.5C 105.991,201.65 107.158,199.317 109.5,197.5 Z"/></g>
<g><path style="opacity:1" fill="#fbb3b5" d="M 240.5,164.5 C 240.5,177.5 240.5,190.5 240.5,203.5C 254.183,203.167 267.85,203.501 281.5,204.5C 281.376,205.107 281.043,205.44 280.5,205.5C 267.344,204.504 254.01,204.171 240.5,204.5C 239.833,204.5 239.5,204.167 239.5,203.5C 239.171,190.323 239.505,177.323 240.5,164.5 Z"/></g>
<g><path style="opacity:1" fill="#d84648" d="M 240.5,204.5 C 254.01,204.171 267.344,204.504 280.5,205.5C 279.416,208.004 278.083,210.337 276.5,212.5C 276.674,210.139 277.007,207.806 277.5,205.5C 264.989,205.829 252.655,205.495 240.5,204.5 Z"/></g>
<g><path style="opacity:0.078" fill="#230100" d="M 395.5,205.5 C 398.324,205.989 399.657,207.656 399.5,210.5C 399.167,210.5 398.833,210.5 398.5,210.5C 398.573,208.973 397.906,207.973 396.5,207.5C 395.662,207.158 395.328,206.492 395.5,205.5 Z"/></g>
<g><path style="opacity:1" fill="#cf3232" d="M 178.5,197.5 C 182.25,203.719 185.25,210.386 187.5,217.5C 185.49,216.085 183.657,214.418 182,212.5C 180.981,207.427 179.815,202.427 178.5,197.5 Z"/></g>
<g><path style="opacity:0.761" fill="#be3935" d="M 396.5,207.5 C 397.906,207.973 398.573,208.973 398.5,210.5C 398.657,211.873 398.49,213.207 398,214.5C 396.913,212.068 396.413,212.402 396.5,215.5C 395.503,212.995 395.503,210.328 396.5,207.5 Z"/></g>
<g><path style="opacity:0.094" fill="#330601" d="M 117.5,213.5 C 122.513,213.779 123.513,215.779 120.5,219.5C 119.675,220.386 118.675,220.719 117.5,220.5C 117.5,218.167 117.5,215.833 117.5,213.5 Z"/></g>
<g><path style="opacity:1" fill="#f63a38" d="M 335.5,197.5 C 333.833,202.167 332.167,206.833 330.5,211.5C 331.5,211.5 332.5,211.5 333.5,211.5C 333.826,215.884 333.492,220.217 332.5,224.5C 331.167,221.833 329.833,219.167 328.5,216.5C 327.416,217.665 326.583,218.998 326,220.5C 325.667,220.167 325.333,219.833 325,219.5C 323.532,220.989 322.032,222.323 320.5,223.5C 324.998,214.499 329.998,205.832 335.5,197.5 Z"/></g>
<g><path style="opacity:0.753" fill="#b32f2d" d="M 117.5,213.5 C 117.5,215.833 117.5,218.167 117.5,220.5C 116.007,219.688 115.34,218.355 115.5,216.5C 115.64,214.97 116.307,213.97 117.5,213.5 Z"/></g>
<g><path style="opacity:0.163" fill="#1a0000" d="M 105.5,217.5 C 106.167,219.167 106.833,220.833 107.5,222.5C 107.5,224.833 107.5,227.167 107.5,229.5C 107.167,229.5 106.833,229.5 106.5,229.5C 106.5,228.833 106.167,228.5 105.5,228.5C 105.5,224.833 105.5,221.167 105.5,217.5 Z"/></g>
<g><path style="opacity:0.271" fill="#3f0807" d="M 398.5,210.5 C 398.833,210.5 399.167,210.5 399.5,210.5C 399.969,215.992 400.135,221.659 400,227.5C 402.221,230.393 403.388,233.726 403.5,237.5C 401.837,235.562 401.171,233.228 401.5,230.5C 400.5,230.5 399.5,230.5 398.5,230.5C 398.666,226.154 398.499,221.821 398,217.5C 397.722,216.584 397.222,215.918 396.5,215.5C 396.413,212.402 396.913,212.068 398,214.5C 398.49,213.207 398.657,211.873 398.5,210.5 Z"/></g>
<g><path style="opacity:1" fill="#d93a3e" d="M 396.5,215.5 C 397.222,215.918 397.722,216.584 398,217.5C 398.499,221.821 398.666,226.154 398.5,230.5C 399.5,230.5 400.5,230.5 401.5,230.5C 401.171,233.228 401.837,235.562 403.5,237.5C 403.833,240.167 404.167,242.833 404.5,245.5C 403.5,245.5 402.5,245.5 401.5,245.5C 401.923,243.219 401.256,241.552 399.5,240.5C 400.278,239.844 400.944,239.011 401.5,238C 400.767,236.234 400.433,234.401 400.5,232.5C 399.5,232.5 398.5,232.5 397.5,232.5C 396.646,226.879 396.313,221.212 396.5,215.5 Z"/></g>
<g><path style="opacity:0.953" fill="#ce3838" d="M 111.5,201.5 C 111.833,201.5 112.167,201.5 112.5,201.5C 112.035,209.521 111.368,217.521 110.5,225.5C 113.62,225.874 114.954,227.707 114.5,231C 114.715,233.909 113.715,236.076 111.5,237.5C 112.051,234.193 112.384,230.86 112.5,227.5C 111.5,227.5 110.5,227.5 109.5,227.5C 108.223,228.317 107.89,226.317 108.5,221.5C 109.758,214.876 110.758,208.21 111.5,201.5 Z"/></g>
<g><path style="opacity:0.165" fill="#48090b" d="M 107.5,221.5 C 107.833,221.5 108.167,221.5 108.5,221.5C 107.89,226.317 108.223,228.317 109.5,227.5C 110.5,227.5 111.5,227.5 112.5,227.5C 112.384,230.86 112.051,234.193 111.5,237.5C 111.44,238.043 111.107,238.376 110.5,238.5C 109.548,236.955 109.215,235.288 109.5,233.5C 108.5,233.5 107.5,233.5 106.5,233.5C 105.699,231.958 105.366,230.292 105.5,228.5C 106.167,228.5 106.5,228.833 106.5,229.5C 106.833,230.833 107.167,230.833 107.5,229.5C 107.5,227.167 107.5,224.833 107.5,222.5C 107.5,222.167 107.5,221.833 107.5,221.5 Z"/></g>
<g><path style="opacity:1" fill="#cb3535" d="M 187.5,217.5 C 191.327,224.496 194.66,231.829 197.5,239.5C 195.567,238.358 194.067,236.692 193,234.5C 192.122,231.291 190.789,228.291 189,225.5C 188.178,222.883 187.678,220.216 187.5,217.5 Z"/></g>
<g><path style="opacity:0.859" fill="#c83636" d="M 104.5,215.5 C 105.338,215.842 105.672,216.508 105.5,217.5C 105.5,221.167 105.5,224.833 105.5,228.5C 105.366,230.292 105.699,231.958 106.5,233.5C 106.5,234.833 106.5,236.167 106.5,237.5C 102.81,230.733 101.144,223.4 101.5,215.5C 102.5,215.5 103.5,215.5 104.5,215.5 Z"/></g>
<g><path style="opacity:1" fill="#dd3739" d="M 232.5,216.5 C 235.714,222.242 239.214,227.908 243,233.5C 244.076,239.305 245.576,244.971 247.5,250.5C 242.147,239.485 237.147,228.152 232.5,216.5 Z"/></g>
<g><path style="opacity:1" fill="#ffe5e5" d="M 262.5,238.5 C 263.275,240.388 263.275,242.388 262.5,244.5C 264.103,244.688 265.437,244.188 266.5,243C 278.008,242.555 289.342,242.389 300.5,242.5C 302.489,243.632 304.156,244.965 305.5,246.5C 301.206,245.648 296.873,244.982 292.5,244.5C 285.345,243.345 278.012,243.178 270.5,244C 266.837,244.572 263.503,245.738 260.5,247.5C 259.325,247.719 258.325,247.386 257.5,246.5C 259.192,243.769 260.858,241.102 262.5,238.5 Z"/></g>
<g><path style="opacity:1" fill="#bf3534" d="M 197.5,240.5 C 200.231,245.256 202.564,250.256 204.5,255.5C 203.115,254.426 201.949,253.093 201,251.5C 199.241,247.991 198.074,244.325 197.5,240.5 Z"/></g>
<g><path style="opacity:0.471" fill="#942c36" d="M 106.5,245.5 C 106.784,247.415 106.451,249.081 105.5,250.5C 105.546,247.449 104.546,244.782 102.5,242.5C 104.15,242.401 105.483,243.401 106.5,245.5 Z"/></g>
<g><path style="opacity:1" fill="#e5504c" d="M 292.5,244.5 C 285.825,244.334 279.158,244.5 272.5,245C 268.69,246.429 264.69,247.263 260.5,247.5C 263.503,245.738 266.837,244.572 270.5,244C 278.012,243.178 285.345,243.345 292.5,244.5 Z"/></g>
<g><path style="opacity:0.102" fill="#2d0602" d="M 403.5,237.5 C 405.118,240.171 405.785,243.171 405.5,246.5C 404.022,246.238 402.689,246.571 401.5,247.5C 402.348,249.409 402.682,251.409 402.5,253.5C 400.124,249.607 399.124,245.273 399.5,240.5C 401.256,241.552 401.923,243.219 401.5,245.5C 402.5,245.5 403.5,245.5 404.5,245.5C 404.167,242.833 403.833,240.167 403.5,237.5 Z"/></g>
<g><path style="opacity:0.205" fill="#2d0502" d="M 402.5,253.5 C 403.634,255.966 403.801,258.633 403,261.5C 402.617,262.056 402.117,262.389 401.5,262.5C 402.159,259.545 402.492,256.545 402.5,253.5 Z"/></g>
<g><path style="opacity:1" fill="#b13032" d="M 204.5,255.5 C 206.585,257.684 207.585,260.351 207.5,263.5C 205.415,261.316 204.415,258.649 204.5,255.5 Z"/></g>
<g><path style="opacity:1" fill="#c63433" d="M 247.5,250.5 C 248.15,250.804 248.817,251.137 249.5,251.5C 250.624,254.45 251.958,257.283 253.5,260C 259.439,259.505 265.439,259.005 271.5,258.5C 277.098,258.276 282.431,258.943 287.5,260.5C 276.243,260.029 265.077,260.695 254,262.5C 253.228,262.355 252.561,262.022 252,261.5C 250.232,257.914 248.732,254.247 247.5,250.5 Z"/></g>
<g><path style="opacity:0.992" fill="#c53232" d="M 399.5,240.5 C 399.124,245.273 400.124,249.607 402.5,253.5C 402.492,256.545 402.159,259.545 401.5,262.5C 398.777,264.271 398.111,266.605 399.5,269.5C 399.225,271.758 398.225,272.092 396.5,270.5C 395.526,272.743 395.192,275.076 395.5,277.5C 394.527,275.052 394.194,272.385 394.5,269.5C 395.5,269.5 396.5,269.5 397.5,269.5C 397.732,264.674 398.732,260.007 400.5,255.5C 399.684,252.033 399.018,248.533 398.5,245C 398.508,243.293 398.842,241.793 399.5,240.5 Z"/></g>
<g><path style="opacity:1" fill="#dd3536" d="M 287.5,260.5 C 291.24,260.241 294.906,260.574 298.5,261.5C 299.466,263.396 299.799,265.396 299.5,267.5C 298.5,267.5 297.5,267.5 296.5,267.5C 296.66,269.199 296.494,270.866 296,272.5C 293.697,276.806 291.197,280.806 288.5,284.5C 290.956,277.587 293.956,270.921 297.5,264.5C 293.993,263.337 290.659,262.004 287.5,260.5 Z"/></g>
<g><path style="opacity:0.278" fill="#2d0804" d="M 104.5,215.5 C 103.5,215.5 102.5,215.5 101.5,215.5C 101.144,223.4 102.81,230.733 106.5,237.5C 107.657,240.307 107.657,242.974 106.5,245.5C 105.483,243.401 104.15,242.401 102.5,242.5C 104.546,244.782 105.546,247.449 105.5,250.5C 105.975,253.082 105.308,255.082 103.5,256.5C 103.44,255.957 103.107,255.624 102.5,255.5C 102.167,256.667 101.833,257.833 101.5,259C 105.191,269.741 107.857,280.741 109.5,292C 109.862,293.434 110.528,294.601 111.5,295.5C 112.167,297.167 112.833,298.833 113.5,300.5C 111.465,298.14 109.632,295.473 108,292.5C 106.594,281.455 103.927,270.789 100,260.5C 99.5034,258.19 99.3367,255.857 99.5,253.5C 101.144,253.286 102.644,253.62 104,254.5C 104.167,253.167 104.333,251.833 104.5,250.5C 102.999,247.327 101.999,243.993 101.5,240.5C 102.5,240.5 103.5,240.5 104.5,240.5C 103.449,236.173 102.282,231.84 101,227.5C 100.501,223.179 100.334,218.846 100.5,214.5C 102.099,214.232 103.432,214.566 104.5,215.5 Z"/></g>
<g><path style="opacity:1" fill="#dd393a" d="M 103.5,256.5 C 102.861,257.097 102.528,257.93 102.5,259C 106.812,269.747 109.478,280.914 110.5,292.5C 111.5,292.5 112.5,292.5 113.5,292.5C 113.715,294.179 113.048,295.179 111.5,295.5C 110.528,294.601 109.862,293.434 109.5,292C 107.857,280.741 105.191,269.741 101.5,259C 101.833,257.833 102.167,256.667 102.5,255.5C 103.107,255.624 103.44,255.957 103.5,256.5 Z"/></g>
<g><path style="opacity:0.018" fill="#1a0100" d="M 401.5,262.5 C 400.582,266.122 400.582,269.788 401.5,273.5C 399.901,273.768 398.568,273.434 397.5,272.5C 398.5,272.5 399.5,272.5 400.5,272.5C 400.737,271.209 400.404,270.209 399.5,269.5C 398.111,266.605 398.777,264.271 401.5,262.5 Z"/></g>
<g><path style="opacity:0.259" fill="#441414" d="M 399.5,269.5 C 400.404,270.209 400.737,271.209 400.5,272.5C 399.5,272.5 398.5,272.5 397.5,272.5C 396.539,274.265 396.205,276.265 396.5,278.5C 396.5,279.833 396.5,281.167 396.5,282.5C 396.167,282.5 395.833,282.5 395.5,282.5C 395.5,280.833 395.5,279.167 395.5,277.5C 395.192,275.076 395.526,272.743 396.5,270.5C 398.225,272.092 399.225,271.758 399.5,269.5 Z"/></g>
<g><path style="opacity:1" fill="#d23435" d="M 207.5,263.5 C 210.721,268.456 213.388,273.789 215.5,279.5C 213.9,278.748 212.4,277.748 211,276.5C 210.368,271.939 209.202,267.606 207.5,263.5 Z"/></g>
<g><path style="opacity:0.675" fill="#b33635" d="M 395.5,282.5 C 395.833,282.5 396.167,282.5 396.5,282.5C 396.5,284.167 396.5,285.833 396.5,287.5C 394.708,287.634 393.042,287.301 391.5,286.5C 392.313,285.347 393.313,285.347 394.5,286.5C 395.429,285.311 395.762,283.978 395.5,282.5 Z"/></g>
<g><path style="opacity:1" fill="#c63335" d="M 215.5,280.5 C 218.403,285.977 221.07,291.643 223.5,297.5C 222.624,297.631 221.957,297.298 221.5,296.5C 218.406,291.54 216.406,286.206 215.5,280.5 Z"/></g>
<g><path style="opacity:0.725" fill="#c14246" d="M 391.5,286.5 C 391.486,290.251 390.153,293.251 387.5,295.5C 388.662,292.316 389.996,289.316 391.5,286.5 Z"/></g>
<g><path style="opacity:0.243" fill="#190201" d="M 396.5,278.5 C 397.603,285.676 397.603,293.009 396.5,300.5C 394.876,300.64 393.71,299.973 393,298.5C 392.204,295.961 392.371,293.628 393.5,291.5C 393.201,293.604 393.534,295.604 394.5,297.5C 396.026,294.346 396.693,291.013 396.5,287.5C 396.5,285.833 396.5,284.167 396.5,282.5C 396.5,281.167 396.5,279.833 396.5,278.5 Z"/></g>
<g><path style="opacity:1" fill="#d63434" d="M 288.5,284.5 C 287.383,288.057 286.383,291.724 285.5,295.5C 285.833,296.167 286.167,296.833 286.5,297.5C 283.674,301.341 280.674,305.008 277.5,308.5C 281.184,300.422 284.85,292.422 288.5,284.5 Z"/></g>
<g><path style="opacity:0.439" fill="#872a2a" d="M 115.5,297.5 C 114.596,298.209 114.263,299.209 114.5,300.5C 114.167,300.5 113.833,300.5 113.5,300.5C 112.833,298.833 112.167,297.167 111.5,295.5C 113.048,295.179 113.715,294.179 113.5,292.5C 113.435,292.062 113.601,291.728 114,291.5C 115.128,293.345 115.628,295.345 115.5,297.5 Z"/></g>
<g><path style="opacity:1" fill="#c83339" d="M 223.5,297.5 C 225.07,300.314 226.403,303.314 227.5,306.5C 223.991,304.657 222.657,301.657 223.5,297.5 Z"/></g>
<g><path style="opacity:1" fill="#e63436" d="M 387.5,295.5 C 383.068,306.239 377.068,315.906 369.5,324.5C 369.5,322.833 369.5,321.167 369.5,319.5C 371.39,319.703 372.89,319.037 374,317.5C 375.033,314.783 374.2,312.949 371.5,312C 372.717,310.352 373.55,308.519 374,306.5C 376.359,303.962 377.859,304.629 378.5,308.5C 381.608,305.965 383.275,302.631 383.5,298.5C 384.569,297.09 385.903,296.09 387.5,295.5 Z"/></g>
<g><path style="opacity:0.467" fill="#962a29" d="M 117.5,313.5 C 118.779,314.968 120.446,315.635 122.5,315.5C 122.5,316.5 122.5,317.5 122.5,318.5C 121.221,317.032 119.554,316.365 117.5,316.5C 117.5,315.5 117.5,314.5 117.5,313.5 Z"/></g>
<g><path style="opacity:0.235" fill="#340907" d="M 115.5,297.5 C 116.601,302.773 117.267,308.106 117.5,313.5C 117.5,314.5 117.5,315.5 117.5,316.5C 119.554,316.365 121.221,317.032 122.5,318.5C 122.804,319.15 123.137,319.817 123.5,320.5C 120.894,321.924 120.894,323.257 123.5,324.5C 123.166,327.188 123.832,329.521 125.5,331.5C 124.504,331.586 123.671,331.252 123,330.5C 122.215,327.471 121.049,324.638 119.5,322C 121.887,318.97 120.887,317.47 116.5,317.5C 116.07,311.761 115.404,306.095 114.5,300.5C 114.263,299.209 114.596,298.209 115.5,297.5 Z"/></g>
<g><path style="opacity:1" fill="#cc3635" d="M 227.5,307.5 C 230.257,311.416 232.257,315.75 233.5,320.5C 229.657,317.142 227.657,312.808 227.5,307.5 Z"/></g>
<g><path style="opacity:0.088" fill="#270805" d="M 391.5,286.5 C 393.042,287.301 394.708,287.634 396.5,287.5C 396.693,291.013 396.026,294.346 394.5,297.5C 393.534,295.604 393.201,293.604 393.5,291.5C 393.649,290.448 393.483,289.448 393,288.5C 391.625,290.937 391.125,293.603 391.5,296.5C 390.325,296.281 389.325,296.614 388.5,297.5C 386.961,300.746 385.294,303.912 383.5,307C 389.35,312.911 388.35,317.411 380.5,320.5C 381.935,321.929 382.935,323.595 383.5,325.5C 383.101,328.422 382.934,331.422 383,334.5C 380.772,336.113 378.272,336.78 375.5,336.5C 375.447,333.86 374.78,331.36 373.5,329C 374.376,325.727 375.21,322.561 376,319.5C 363.744,333.188 352.577,347.688 342.5,363C 345.404,362.435 348.404,361.935 351.5,361.5C 351.076,364.918 349.742,367.918 347.5,370.5C 347.247,368.173 347.914,366.173 349.5,364.5C 348.833,364.167 348.167,363.833 347.5,363.5C 344.534,364.325 341.534,364.992 338.5,365.5C 336.97,365.36 335.97,364.693 335.5,363.5C 336.492,363.672 337.158,363.338 337.5,362.5C 338.978,362.762 340.311,362.429 341.5,361.5C 344.137,356.57 347.137,351.904 350.5,347.5C 356.803,339.858 363.137,332.191 369.5,324.5C 377.068,315.906 383.068,306.239 387.5,295.5C 390.153,293.251 391.486,290.251 391.5,286.5 Z"/></g>
<g><path style="opacity:0.808" fill="#d4383c" d="M 381.5,309.5 C 385.347,310.524 386.347,312.857 384.5,316.5C 383.311,317.429 381.978,317.762 380.5,317.5C 381.092,314.873 381.425,312.206 381.5,309.5 Z"/></g>
<g><path style="opacity:0.773" fill="#bb2f34" d="M 123.5,324.5 C 124.404,325.209 124.737,326.209 124.5,327.5C 125.5,327.5 126.5,327.5 127.5,327.5C 127.433,328.959 127.766,330.292 128.5,331.5C 127.5,331.5 126.5,331.5 125.5,331.5C 123.832,329.521 123.166,327.188 123.5,324.5 Z"/></g>
<g><path style="opacity:1" fill="#c43331" d="M 233.5,320.5 C 235.736,324.645 237.736,328.978 239.5,333.5C 235.274,330.382 233.274,326.049 233.5,320.5 Z"/></g>
<g><path style="opacity:0.996" fill="#ce3739" d="M 376.5,323.5 C 378.167,323.5 379.833,323.5 381.5,323.5C 381.319,326.397 381.652,329.23 382.5,332C 381.104,334.235 379.104,335.402 376.5,335.5C 376.473,332.77 377.14,330.27 378.5,328C 378.508,324.846 377.842,324.679 376.5,327.5C 375.374,326.192 375.374,324.858 376.5,323.5 Z"/></g>
<g><path style="opacity:0.027" fill="#240300" d="M 125.5,331.5 C 126.5,331.5 127.5,331.5 128.5,331.5C 130.871,333.997 131.871,336.997 131.5,340.5C 130.243,336.98 128.243,333.98 125.5,331.5 Z"/></g>
<g><path style="opacity:0.941" fill="#c73438" d="M 128.5,331.5 C 129.5,331.5 130.5,331.5 131.5,331.5C 133.087,334.919 133.753,338.585 133.5,342.5C 132.833,341.833 132.167,341.167 131.5,340.5C 131.871,336.997 130.871,333.997 128.5,331.5 Z"/></g>
<g><path style="opacity:1" fill="#e33535" d="M 277.5,308.5 C 276.256,314.797 274.089,320.797 271,326.5C 269.775,331.085 269.275,335.752 269.5,340.5C 267.297,340.604 265.297,341.27 263.5,342.5C 263.5,341.833 263.5,341.167 263.5,340.5C 267.655,329.531 272.322,318.864 277.5,308.5 Z"/></g>
<g><path style="opacity:1" fill="#690f11" d="M 263.5,340.5 C 263.5,341.167 263.5,341.833 263.5,342.5C 262.833,342.5 262.5,342.833 262.5,343.5C 262.167,343.5 261.833,343.5 261.5,343.5C 261.427,341.973 262.094,340.973 263.5,340.5 Z"/></g>
<g><path style="opacity:0.6" fill="#b73037" d="M 133.5,342.5 C 135.471,344.808 137.471,347.142 139.5,349.5C 138.833,349.5 138.167,349.5 137.5,349.5C 135.295,347.637 133.961,345.303 133.5,342.5 Z"/></g>
<g><path style="opacity:1" fill="#c63032" d="M 239.5,334.5 C 242.544,339.953 245.211,345.619 247.5,351.5C 246.504,351.586 245.671,351.252 245,350.5C 242.86,345.273 241.027,339.94 239.5,334.5 Z"/></g>
<g><path style="opacity:0.051" fill="#230200" d="M 131.5,340.5 C 132.167,341.167 132.833,341.833 133.5,342.5C 133.961,345.303 135.295,347.637 137.5,349.5C 133.277,348.069 131.277,345.069 131.5,340.5 Z"/></g>
<g><path style="opacity:0.29" fill="#2d0700" d="M 137.5,349.5 C 138.167,349.5 138.833,349.5 139.5,349.5C 140.976,351.5 142.809,353.167 145,354.5C 145.366,356.452 146.199,358.118 147.5,359.5C 146.761,359.631 146.094,359.464 145.5,359C 143.536,355.199 140.869,352.032 137.5,349.5 Z"/></g>
<g><path style="opacity:0.063" fill="#220603" d="M 356.5,348.5 C 358.412,345.081 360.912,342.081 364,339.5C 365.885,340.992 366.885,342.992 367,345.5C 368.36,342.449 370.527,341.782 373.5,343.5C 375.314,350.681 372.647,353.014 365.5,350.5C 364.205,351.098 362.872,351.598 361.5,352C 362.517,353.049 362.684,354.216 362,355.5C 359.833,356.333 358.333,357.833 357.5,360C 355.975,361.009 354.308,361.509 352.5,361.5C 352.571,356.969 353.904,352.636 356.5,348.5 Z"/></g>
<g><path style="opacity:0.902" fill="#c83639" d="M 369.5,343.5 C 373.713,344.636 374.38,346.803 371.5,350C 370.207,350.49 368.873,350.657 367.5,350.5C 367.4,347.892 368.067,345.558 369.5,343.5 Z"/></g>
<g><path style="opacity:1" fill="#df3f3e" d="M 359.5,349.5 C 359.062,349.565 358.728,349.399 358.5,349C 359.71,347.961 360.71,346.794 361.5,345.5C 361.685,343.804 362.519,342.471 364,341.5C 364.497,344.146 364.664,346.813 364.5,349.5C 362.833,349.5 361.167,349.5 359.5,349.5 Z"/></g>
<g><path style="opacity:0.784" fill="#ac3339" d="M 361.5,345.5 C 360.71,346.794 359.71,347.961 358.5,349C 358.728,349.399 359.062,349.565 359.5,349.5C 361.636,354.536 359.969,356.369 354.5,355C 356.25,353.246 356.917,351.079 356.5,348.5C 357.922,347.075 359.589,346.075 361.5,345.5 Z"/></g>
<g><path style="opacity:0.302" fill="#300601" d="M 147.5,359.5 C 148.167,359.5 148.833,359.5 149.5,359.5C 151.9,362.903 154.9,365.57 158.5,367.5C 160.5,369.833 162.5,372.167 164.5,374.5C 157.938,370.61 152.271,365.61 147.5,359.5 Z"/></g>
<g><path style="opacity:0.89" fill="#cd3939" d="M 149.5,359.5 C 153.1,361.43 156.1,364.097 158.5,367.5C 154.9,365.57 151.9,362.903 149.5,359.5 Z"/></g>
<g><path style="opacity:0.937" fill="#ca3639" d="M 350.5,347.5 C 347.137,351.904 344.137,356.57 341.5,361.5C 340.311,362.429 338.978,362.762 337.5,362.5C 338.209,361.596 339.209,361.263 340.5,361.5C 343.107,357.48 345.274,353.146 347,348.5C 348.011,347.663 349.178,347.33 350.5,347.5 Z"/></g>
<g><path style="opacity:1" fill="#dc3437" d="M 261.5,343.5 C 261.833,343.5 262.167,343.5 262.5,343.5C 261.248,346.983 260.414,350.649 260,354.5C 256.613,356.943 255.113,360.276 255.5,364.5C 253.856,364.286 252.356,364.62 251,365.5C 248.774,361.51 247.607,357.177 247.5,352.5C 249.573,355.642 251.407,358.976 253,362.5C 255.848,356.141 258.681,349.807 261.5,343.5 Z"/></g>
<g><path style="opacity:0.006" fill="#1d1211" d="M 347.5,370.5 C 347.715,372.179 347.048,373.179 345.5,373.5C 345.932,372.29 346.599,371.29 347.5,370.5 Z"/></g>
<g><path style="opacity:0.059" fill="#250400" d="M 345.5,373.5 C 343.37,376.737 340.37,378.737 336.5,379.5C 338.975,376.759 341.975,374.759 345.5,373.5 Z"/></g>
<g><path style="opacity:0.145" fill="#270300" d="M 164.5,374.5 C 165.167,374.5 165.833,374.5 166.5,374.5C 166.833,375.167 167.167,375.833 167.5,376.5C 165.973,376.573 164.973,375.906 164.5,374.5 Z"/></g>
<g><path style="opacity:0.137" fill="#2d0500" d="M 167.5,376.5 C 170.198,376.845 172.198,378.178 173.5,380.5C 171.147,379.66 169.147,378.326 167.5,376.5 Z"/></g>
<g><path style="opacity:0.965" fill="#d33437" d="M 335.5,363.5 C 335.97,364.693 336.97,365.36 338.5,365.5C 341.534,364.992 344.534,364.325 347.5,363.5C 348.167,363.833 348.833,364.167 349.5,364.5C 347.914,366.173 347.247,368.173 347.5,370.5C 346.599,371.29 345.932,372.29 345.5,373.5C 341.975,374.759 338.975,376.759 336.5,379.5C 333.697,379.961 331.363,381.295 329.5,383.5C 329.286,381.856 329.62,380.356 330.5,379C 334.428,377.945 338.094,376.445 341.5,374.5C 341.5,373.167 341.5,371.833 341.5,370.5C 342.5,370.5 343.5,370.5 344.5,370.5C 345.013,368.71 345.513,367.044 346,365.5C 342.27,366.46 338.437,366.793 334.5,366.5C 334.263,365.209 334.596,364.209 335.5,363.5 Z"/></g>
<g><path style="opacity:0.098" fill="#270400" d="M 173.5,380.5 C 175.674,380.75 177.341,381.75 178.5,383.5C 176.326,383.25 174.659,382.25 173.5,380.5 Z"/></g>
<g><path style="opacity:1" fill="#ea3437" d="M 166.5,374.5 C 172.596,374.747 177.263,377.413 180.5,382.5C 181.5,381.167 182.5,381.167 183.5,382.5C 184.192,381.975 184.692,381.308 185,380.5C 185.75,381.126 186.584,381.626 187.5,382C 184.819,385.054 185.652,386.887 190,387.5C 190.464,388.094 190.631,388.761 190.5,389.5C 189.833,389.5 189.167,389.5 188.5,389.5C 187.833,389.5 187.167,389.5 186.5,389.5C 185.378,386.562 183.378,384.562 180.5,383.5C 179.833,383.5 179.167,383.5 178.5,383.5C 177.341,381.75 175.674,380.75 173.5,380.5C 172.198,378.178 170.198,376.845 167.5,376.5C 167.167,375.833 166.833,375.167 166.5,374.5 Z"/></g>
<g><path style="opacity:0.106" fill="#1e0100" d="M 178.5,383.5 C 179.167,383.5 179.833,383.5 180.5,383.5C 180.833,384.167 181.167,384.833 181.5,385.5C 179.973,385.573 178.973,384.906 178.5,383.5 Z"/></g>
<g><path style="opacity:0.302" fill="#760c0e" d="M 328.5,384.5 C 325.713,385.477 322.713,385.81 319.5,385.5C 319.768,387.099 319.434,388.432 318.5,389.5C 318.5,387.833 318.5,386.167 318.5,384.5C 321.833,384.5 325.167,384.5 328.5,384.5 Z"/></g>
<g><path style="opacity:0.149" fill="#511212" d="M 180.5,383.5 C 183.378,384.562 185.378,386.562 186.5,389.5C 184.427,388.7 182.76,387.367 181.5,385.5C 181.167,384.833 180.833,384.167 180.5,383.5 Z"/></g>
<g><path style="opacity:0.282" fill="#580105" d="M 300.5,387.5 C 301.675,387.281 302.675,387.614 303.5,388.5C 301.948,389.798 300.948,389.465 300.5,387.5 Z"/></g>
<g><path style="opacity:0.663" fill="#8e1e20" d="M 297.5,392.5 C 296.292,391.766 294.959,391.433 293.5,391.5C 294.287,389.896 295.62,389.229 297.5,389.5C 297.5,390.5 297.5,391.5 297.5,392.5 Z"/></g>
<g><path style="opacity:0.071" fill="#1e0000" d="M 186.5,389.5 C 187.167,389.5 187.833,389.5 188.5,389.5C 188.833,390.167 189.167,390.833 189.5,391.5C 187.973,391.573 186.973,390.906 186.5,389.5 Z"/></g>
<g><path style="opacity:0.847" fill="#ae2c2b" d="M 188.5,389.5 C 189.167,389.5 189.833,389.5 190.5,389.5C 192.117,390.038 193.784,390.371 195.5,390.5C 195.527,392.199 196.194,393.533 197.5,394.5C 196.833,394.5 196.167,394.5 195.5,394.5C 194.508,394.672 193.842,394.338 193.5,393.5C 192.713,391.896 191.38,391.229 189.5,391.5C 189.167,390.833 188.833,390.167 188.5,389.5 Z"/></g>
<g><path style="opacity:0.031" fill="#250200" d="M 189.5,391.5 C 191.38,391.229 192.713,391.896 193.5,393.5C 191.847,393.34 190.514,392.674 189.5,391.5 Z"/></g>
<g><path style="opacity:0.902" fill="#c43638" d="M 308.5,392.5 C 311.548,391.721 314.548,391.388 317.5,391.5C 320.572,391.183 323.572,391.516 326.5,392.5C 325.855,393.646 325.022,394.646 324,395.5C 321.827,393.17 319.327,392.837 316.5,394.5C 314.028,393.008 311.361,392.342 308.5,392.5 Z"/></g>
<g><path style="opacity:0.141" fill="#260805" d="M 336.5,379.5 C 334.063,381.433 331.729,383.6 329.5,386C 330.081,386.893 330.415,387.893 330.5,389C 329.132,391.569 327.632,394.069 326,396.5C 324.89,398.037 323.39,398.703 321.5,398.5C 321.657,397.127 321.49,395.793 321,394.5C 318.619,395.435 316.119,395.768 313.5,395.5C 313.703,397.39 313.037,398.89 311.5,400C 309.26,400.977 306.927,401.477 304.5,401.5C 304.744,398.737 306.077,396.571 308.5,395C 304.374,394.384 301.04,395.717 298.5,399C 296.527,399.495 294.527,399.662 292.5,399.5C 292.716,397.319 291.883,395.653 290,394.5C 289.333,395.167 288.667,395.833 288,396.5C 287.674,399.332 288.174,401.999 289.5,404.5C 287.396,404.799 285.396,404.466 283.5,403.5C 282.94,401.146 282.273,398.813 281.5,396.5C 279.081,396.914 277.081,397.914 275.5,399.5C 273.517,399.843 272.183,399.176 271.5,397.5C 272.492,397.672 273.158,397.338 273.5,396.5C 276.807,395.949 280.14,395.616 283.5,395.5C 282.828,398.908 283.828,401.575 286.5,403.5C 286.833,403.167 287.167,402.833 287.5,402.5C 286.389,401.389 285.722,400.055 285.5,398.5C 286.187,396.823 286.854,395.156 287.5,393.5C 288.167,393.5 288.833,393.5 289.5,393.5C 291.044,393.703 292.378,394.37 293.5,395.5C 294.711,396.274 294.711,397.107 293.5,398C 296.872,399.122 298.872,397.955 299.5,394.5C 302.5,393.833 305.5,393.167 308.5,392.5C 311.361,392.342 314.028,393.008 316.5,394.5C 319.327,392.837 321.827,393.17 324,395.5C 325.022,394.646 325.855,393.646 326.5,392.5C 323.572,391.516 320.572,391.183 317.5,391.5C 317.328,390.508 317.662,389.842 318.5,389.5C 319.434,388.432 319.768,387.099 319.5,385.5C 322.713,385.81 325.713,385.477 328.5,384.5C 329.167,384.5 329.5,384.167 329.5,383.5C 331.363,381.295 333.697,379.961 336.5,379.5 Z M 320.5,386.5 C 322.833,386.5 325.167,386.5 327.5,386.5C 327.5,387.833 327.5,389.167 327.5,390.5C 325.473,390.662 323.473,390.495 321.5,390C 320.663,388.989 320.33,387.822 320.5,386.5 Z"/></g>
<g><path style="opacity:0.076" fill="#270200" d="M 195.5,394.5 C 196.167,394.5 196.833,394.5 197.5,394.5C 199.849,396.341 202.515,397.674 205.5,398.5C 209.038,400.769 212.705,402.769 216.5,404.5C 208.804,402.484 201.804,399.15 195.5,394.5 Z"/></g>
<g><path style="opacity:0.318" fill="#641f1e" d="M 293.5,391.5 C 294.959,391.433 296.292,391.766 297.5,392.5C 297.5,393.833 298.167,394.5 299.5,394.5C 298.872,397.955 296.872,399.122 293.5,398C 294.711,397.107 294.711,396.274 293.5,395.5C 292.378,394.37 291.044,393.703 289.5,393.5C 290.183,391.824 291.517,391.157 293.5,391.5 Z"/></g>
<g><path style="opacity:0.769" fill="#ac3b3c" d="M 310.5,394.5 C 313.099,396.584 312.599,398.251 309,399.5C 308.5,399.167 308,398.833 307.5,398.5C 308.524,397.148 309.524,395.815 310.5,394.5 Z"/></g>
<g><path style="opacity:0.944" fill="#e03737" d="M 273.5,396.5 C 273.158,397.338 272.492,397.672 271.5,397.5C 264.602,399.082 257.602,399.749 250.5,399.5C 243.833,399.5 237.167,399.5 230.5,399.5C 230.5,401.5 230.5,403.5 230.5,405.5C 225.807,405.46 221.141,405.127 216.5,404.5C 212.705,402.769 209.038,400.769 205.5,398.5C 209.105,398.799 212.439,399.965 215.5,402C 218.146,402.497 220.813,402.664 223.5,402.5C 223.5,401.167 223.5,399.833 223.5,398.5C 240.337,398.976 257.004,398.309 273.5,396.5 Z"/></g>
<g><path style="opacity:0.643" fill="#9a2a2b" d="M 250.5,399.5 C 246.03,400.486 241.363,400.819 236.5,400.5C 235.167,400.5 233.833,400.5 232.5,400.5C 231.833,402.167 231.167,403.833 230.5,405.5C 230.5,403.5 230.5,401.5 230.5,399.5C 237.167,399.5 243.833,399.5 250.5,399.5 Z"/></g>
<g><path style="opacity:0.376" fill="#58070c" d="M 271.5,397.5 C 272.183,399.176 273.517,399.843 275.5,399.5C 275.5,400.167 275.5,400.833 275.5,401.5C 274.167,401.5 272.833,401.5 271.5,401.5C 266.833,400.167 262.167,400.167 257.5,401.5C 254.833,401.5 252.167,401.5 249.5,401.5C 245.351,400.92 241.684,401.586 238.5,403.5C 236.952,403.179 236.285,402.179 236.5,400.5C 241.363,400.819 246.03,400.486 250.5,399.5C 257.602,399.749 264.602,399.082 271.5,397.5 Z"/></g>
<g><path style="opacity:0.686" fill="#bd3d43" d="M 287.5,393.5 C 286.854,395.156 286.187,396.823 285.5,398.5C 285.722,400.055 286.389,401.389 287.5,402.5C 287.167,402.833 286.833,403.167 286.5,403.5C 283.828,401.575 282.828,398.908 283.5,395.5C 284.833,394.833 286.167,394.167 287.5,393.5 Z"/></g>
<g><path style="opacity:0.702" fill="#a23531" d="M 249.5,401.5 C 248.737,402.268 247.737,402.768 246.5,403C 247.056,403.383 247.389,403.883 247.5,404.5C 245.5,404.5 243.5,404.5 241.5,404.5C 240.791,403.596 239.791,403.263 238.5,403.5C 241.684,401.586 245.351,400.92 249.5,401.5 Z"/></g>
<g><path style="opacity:0.976" fill="#eb3835" d="M 249.5,401.5 C 252.167,401.5 254.833,401.5 257.5,401.5C 259.167,401.5 260.833,401.5 262.5,401.5C 262.5,402.833 262.5,404.167 262.5,405.5C 259.167,405.5 255.833,405.5 252.5,405.5C 250.585,405.784 248.919,405.451 247.5,404.5C 247.389,403.883 247.056,403.383 246.5,403C 247.737,402.768 248.737,402.268 249.5,401.5 Z"/></g>
<g><path style="opacity:0.392" fill="#4b0c0f" d="M 232.5,400.5 C 232.5,402.5 232.5,404.5 232.5,406.5C 229.833,406.5 227.167,406.5 224.5,406.5C 221.572,406.435 218.905,405.768 216.5,404.5C 221.141,405.127 225.807,405.46 230.5,405.5C 231.167,403.833 231.833,402.167 232.5,400.5 Z"/></g>
<g><path style="opacity:0.725" fill="#ad3a3b" d="M 257.5,401.5 C 262.167,400.167 266.833,400.167 271.5,401.5C 269.143,401.337 266.81,401.503 264.5,402C 264.384,403.268 264.051,404.602 263.5,406C 259.642,406.81 255.976,406.643 252.5,405.5C 255.833,405.5 259.167,405.5 262.5,405.5C 262.5,404.167 262.5,402.833 262.5,401.5C 260.833,401.5 259.167,401.5 257.5,401.5 Z"/></g>
<g><path style="opacity:0.078" fill="#280906" d="M 271.5,401.5 C 272.833,401.5 274.167,401.5 275.5,401.5C 273.031,402.317 270.365,402.817 267.5,403C 266.62,404.356 266.286,405.856 266.5,407.5C 257.842,408.041 249.508,407.041 241.5,404.5C 243.5,404.5 245.5,404.5 247.5,404.5C 248.919,405.451 250.585,405.784 252.5,405.5C 255.976,406.643 259.642,406.81 263.5,406C 264.051,404.602 264.384,403.268 264.5,402C 266.81,401.503 269.143,401.337 271.5,401.5 Z"/></g>
<g><path style="opacity:0.024" fill="#140000" d="M 232.5,400.5 C 233.833,400.5 235.167,400.5 236.5,400.5C 236.285,402.179 236.952,403.179 238.5,403.5C 239.791,403.263 240.791,403.596 241.5,404.5C 239.5,404.5 237.5,404.5 235.5,404.5C 235.719,403.325 235.386,402.325 234.5,401.5C 233.534,403.396 233.201,405.396 233.5,407.5C 230.287,407.81 227.287,407.477 224.5,406.5C 227.167,406.5 229.833,406.5 232.5,406.5C 232.5,404.5 232.5,402.5 232.5,400.5 Z"/></g>
</svg>
